<?xml version="1.0"?>
<svg version="1.1" xmlns="http://www.w3.org/2000/svg" width="618" height="200" style=""><path fill="#000000" d="M16.93798828125,126.33203125q0.1845703125-4.9833984375,0.322998046875-10.212890625t0.261474609375-10.320556640625t0.1845703125-9.889892578125t0.0615234375-8.95166015625q0.0615234375-0.83056640625,1.44580078125-1.32275390625t3.306884765625-0.722900390625t4.060546875-0.292236328125t3.799072265625-0.0615234375q0.369140625,0,1.5380859375-0.03076171875l0.58447265625,0q0.89208984375,0,1.87646484375,0.0615234375q1.2919921875,0.09228515625,2.260986328125,0.39990234375t0.968994140625,0.89208984375q0,0.4306640625-0.33837890625,0.692138671875t-0.784423828125,0.384521484375t-0.9228515625,0.15380859375t-0.661376953125,0.03076171875q-2.8916015625,0-5.7216796875-0.09228515625q-0.76904296875-0.03076171875-1.56884765625-0.03076171875q-2.091796875,0-4.2451171875,0.1845703125q0.123046875,0.369140625,0.199951171875,2.230224609375t0.076904296875,4.198974609375t-0.03076171875,4.568115234375t0,3.429931640625l0,7.998046875q0.95361328125-0.0615234375,1.87646484375-0.0615234375l1.845703125,0l1.23046875-0.0615234375q0.615234375-0.03076171875,1.2919921875-0.03076171875q0.70751953125,0,1.44580078125,0.03076171875q1.4765625,0.0615234375,2.691650390625,0.353759765625t1.215087890625,1.030517578125q0,0.5537109375-0.46142578125,0.815185546875t-1.030517578125,0.384521484375t-1.07666015625,0.123046875l-0.569091796875,0q-1.75341796875,0-3.645263671875-0.123046875t-3.522216796875-0.123046875q-0.3076171875,0.123046875-0.661376953125,0.09228515625t-0.630615234375-0.03076171875q0,4.6142578125-0.09228515625,9.182373046875t-0.21533203125,9.090087890625q0,0.89208984375-1.122802734375,1.1689453125t-2.137939453125,0.27685546875q-1.13818359375,0-1.799560546875-0.27685546875t-0.938232421875-0.907470703125t-0.33837890625-1.676513671875q-0.03076171875-0.58447265625-0.0615234375-1.2919921875q0-0.58447265625,0.03076171875-1.26123046875z M42.060161132812,103.53759765625l0-2.36865234375l0-2.43017578125q0.03076171875-2.4609375,0.199951171875-4.721923828125t0.476806640625-3.768310546875q0.1845703125-0.83056640625,1.107421875-1.01513671875t1.599609375-0.1845703125q1.26123046875,0,1.861083984375,0.3076171875t0.784423828125,0.876708984375t0.15380859375,1.353515625t-0.03076171875,1.799560546875q0,1.44580078125-0.0615234375,4.02978515625t-0.09228515625,5.7216796875l0,1.56884765625q0,2.36865234375,0.0615234375,4.89111328125q0.09228515625,3.3837890625,0.353759765625,6.475341796875t0.722900390625,5.56787109375t1.2919921875,3.799072265625q1.32275390625-1.19970703125,2.6455078125-3.368408203125t2.5224609375-4.875732421875t2.291748046875-5.706298828125t1.984130859375-5.860107421875t1.522705078125-5.38330078125t0.938232421875-4.27587890625q0.4921875-2.5224609375,0.661376953125-5.13720703125t0.169189453125-5.81396484375q0.95361328125-1.13818359375,1.4765625-1.430419921875t1.6611328125-0.292236328125q0.5537109375,0,1.122802734375,0.09228515625t1.092041015625,0.4306640625l0.4306640625,0.6767578125l0,0.76904296875q0,5.5986328125-0.538330078125,11.366455078125t-1.13818359375,11.59716796875t-1.13818359375,11.689453125t-0.538330078125,11.643310546875q0,0.89208984375,0.076904296875,1.891845703125t0.322998046875,1.891845703125l-0.123046875,0.369140625q-0.4306640625,0.70751953125-1.4150390625,0.89208984375t-1.69189453125,0.1845703125q-1.50732421875,0-2.260986328125-0.446044921875t-0.999755859375-1.23046875t-0.21533203125-1.81494140625t0.03076171875-2.230224609375q0-4.15283203125,0.369140625-8.444091796875t0.89208984375-8.444091796875q-0.4921875,1.44580078125-1.1689453125,3.491455078125t-1.584228515625,4.09130859375t-2.107177734375,3.7529296875t-2.6455078125,2.445556640625l0.0615234375-0.0615234375l-0.24609375,0.123046875l0.0615234375,0q-0.89208984375,0.4921875-1.645751953125,0.661376953125t-1.768798828125,0.169189453125q-2.0302734375,0-3.368408203125-1.19970703125t-2.168701171875-3.091552734375t-1.23046875-4.2451171875t-0.569091796875-4.721923828125t-0.169189453125-4.506591796875l0-3.522216796875q0-1.69189453125-0.03076171875-4.02978515625z M53.011333007812,128.02392578125q0.0615234375,0,0.0615234375-0.0615234375l0.0615234375,0q-0.0615234375,0.0615234375-0.123046875,0.0615234375z M75.303427734375,91.23291015625q0-0.369140625,0.353759765625-0.5537109375t0.76904296875-0.27685546875t0.753662109375-0.09228515625l0.33837890625,0q1.07666015625,0,1.553466796875,0.4921875t1.153564453125,1.26123046875q4.6142578125,6.67529296875,8.45947265625,13.735107421875t7.41357421875,14.288818359375q0.3076171875-8.4287109375,0.630615234375-16.965087890625t0.815185546875-16.934326171875q0-0.369140625,0.353759765625-0.615234375t0.7998046875-0.369140625t0.907470703125-0.15380859375t0.70751953125-0.03076171875q0.369140625,0,0.815185546875,0.03076171875t0.89208984375,0.1845703125t0.73828125,0.369140625t0.292236328125,0.58447265625q0.123046875,1.32275390625,0.138427734375,2.660888671875t0.015380859375,2.660888671875q0,9.9052734375-0.4306640625,19.41064453125t-0.4306640625,19.1953125l0,2.21484375q0,0.123046875-0.123046875,0.369140625q0.0615234375,0.24609375,0.1845703125,0.538330078125t0.123046875,0.415283203125q0,0.4921875-0.507568359375,0.73828125t-1.107421875,0.384521484375t-1.061279296875,0.138427734375t-0.33837890625,0q-1.56884765625,0-2.6455078125-0.861328125t-1.07666015625-2.06103515625q-2.2763671875-5.1064453125-4.537353515625-10.135986328125t-4.721923828125-10.012939453125q-1.56884765625-3.1376953125-3.153076171875-6.290771484375t-3.399169921875-6.106201171875q0.0615234375,0.0615234375,0.0615234375,0.1845703125q0.3076171875,3.076171875,0.661376953125,6.136962890625t0.538330078125,6.136962890625q0.123046875,2.6455078125,0.27685546875,5.3525390625t0.4921875,5.3525390625q0,1.01513671875-0.630615234375,1.2919921875t-1.461181640625,0.27685546875q-0.70751953125,0-1.338134765625-0.1845703125t-0.753662109375-0.9228515625q0-2.830078125-0.21533203125-6.013916015625t-0.39990234375-6.413818359375q-0.3076171875-4.27587890625-0.815185546875-8.690185546875t-0.507568359375-8.628662109375q0-0.1845703125,0.03076171875-0.384521484375t0.03076171875-0.446044921875q-0.1845703125-0.3076171875-0.415283203125-0.64599609375t-0.230712890625-0.615234375z"/><path fill="#1090eb" d="M114.46954589844,112.08935546875q0-1.26123046875,0.73828125-2.168701171875t1.799560546875-1.4765625t2.322509765625-0.845947265625t2.337890625-0.27685546875q0.83056640625,0,2.21484375,0.24609375t2.70703125,0.73828125t2.291748046875,1.2919921875t0.968994140625,1.87646484375q0,0.4921875-0.369140625,0.876708984375t-0.76904296875,0.384521484375q-0.83056640625,0-1.50732421875-0.538330078125t-1.399658203125-1.13818359375t-1.584228515625-1.13818359375t-1.93798828125-0.538330078125t-1.953369140625,0.692138671875t-0.876708984375,1.830322265625q0,1.87646484375,1.32275390625,3.676025390625t2.906982421875,3.78369140625t2.906982421875,4.168212890625t1.32275390625,4.82958984375q0,1.13818359375-0.476806640625,1.922607421875t-1.26123046875,1.276611328125t-1.768798828125,0.753662109375t-1.9072265625,0.261474609375q-1.01513671875,0-2.36865234375-0.476806640625t-2.55322265625-1.26123046875t-2.014892578125-1.830322265625t-0.815185546875-2.18408203125q0-0.5537109375,0.784423828125-0.70751953125t1.153564453125-0.15380859375q0.1845703125,0,0.569091796875,0.123046875t0.753662109375,0.27685546875t0.661376953125,0.33837890625t0.230712890625,0.39990234375q0.3076171875,0.369140625,0.938232421875,1.092041015625t1.26123046875,1.1689453125t1.107421875,0.322998046875t0.476806640625-1.38427734375q0-2.3994140625-1.2919921875-4.414306640625t-2.814697265625-3.9375t-2.814697265625-3.814453125t-1.2919921875-4.045166015625z M134.88517578125,100.4921875q0-0.4306640625,0.9228515625-0.73828125t2.091796875-0.507568359375t2.260986328125-0.292236328125t1.491943359375-0.15380859375q0-0.83056640625,0.0615234375-1.676513671875t0.33837890625-1.50732421875t0.876708984375-1.061279296875t1.676513671875-0.39990234375q0.89208984375,0,1.353515625,0.21533203125t0.984375,0.89208984375q0.123046875,0.369140625,0.123046875,0.70751953125l0,1.030517578125t-0.0615234375,1.061279296875q1.13818359375-0.123046875,2.260986328125-0.292236328125t2.260986328125-0.169189453125q0.83056640625,0,1.13818359375,0.03076171875t0.615234375,0.73828125q0.24609375,0.70751953125-0.599853515625,1.07666015625t-2.0302734375,0.5537109375t-2.353271484375,0.27685546875t-1.4150390625,0.09228515625q-0.369140625,5.291015625-0.753662109375,10.48974609375t-0.384521484375,10.55126953125q0,2.3994140625,0.15380859375,4.95263671875t0.861328125,4.82958984375q0.1845703125,0.70751953125,0.615234375,1.32275390625t0.4306640625,1.32275390625q0,0.4306640625-0.33837890625,0.6767578125t-0.815185546875,0.415283203125t-0.95361328125,0.199951171875t-0.784423828125,0.03076171875q-1.93798828125,0-2.953125-1.44580078125t-1.461181640625-3.460693359375t-0.476806640625-4.137451171875t-0.03076171875-3.4453125q0-2.70703125,0.107666015625-5.537109375t0.261474609375-5.5986328125t0.4306640625-5.4140625t0.64599609375-4.921875q-1.07666015625,0.123046875-2.107177734375,0.27685546875t-2.107177734375,0.15380859375q-0.24609375,0-0.661376953125-0.03076171875t-0.784423828125-0.15380859375t-0.630615234375-0.33837890625t-0.261474609375-0.615234375z M157.79250488281,120.6103515625q0-1.75341796875,0.446044921875-3.614501953125t1.4150390625-3.35302734375t2.445556640625-2.43017578125t3.568359375-0.938232421875q1.56884765625,0,3.306884765625,0.538330078125t3.183837890625,1.5380859375t2.353271484375,2.445556640625t0.907470703125,3.22998046875q0,2.1533203125-0.784423828125,4.09130859375t-2.199462890625,3.460693359375t-3.306884765625,2.3994140625t-4.106689453125,0.876708984375q-1.81494140625,0-3.16845703125-0.661376953125t-2.260986328125-1.768798828125t-1.353515625-2.61474609375t-0.446044921875-3.19921875z M162.31447753906,120.548828125q0,0.5537109375,0.169189453125,1.63037109375t0.507568359375,2.107177734375t0.876708984375,1.7841796875t1.307373046875,0.692138671875q1.63037109375-0.1845703125,2.691650390625-1.061279296875t1.72265625-2.137939453125t0.9228515625-2.73779296875t0.261474609375-2.79931640625q0-1.69189453125-0.661376953125-2.830078125t-2.168701171875-1.845703125q0,0.0615234375,0.0615234375,0.0615234375t0.0615234375-0.0615234375l-0.76904296875-0.1845703125q-0.3076171875-0.123046875-0.753662109375-0.27685546875t-0.876708984375-0.6767578125q-1.19970703125,0.4306640625-1.861083984375,1.107421875t-0.999755859375,1.645751953125t-0.415283203125,2.322509765625t-0.076904296875,3.2607421875z M181.09973632813,119.41064453125q0-2.21484375,0.569091796875-4.445068359375t1.768798828125-3.9990234375t3.060791015625-2.876220703125t4.383544921875-1.107421875q1.07666015625,0,2.36865234375,0.261474609375t2.384033203125,0.83056640625t1.845703125,1.4765625t0.753662109375,2.230224609375q0,0.83056640625-0.4306640625,1.107421875t-1.13818359375,0.27685546875l-0.21533203125-0.3076171875t-0.599853515625-0.784423828125t-0.815185546875-1.01513671875t-0.83056640625-0.907470703125q-1.26123046875-1.26123046875-2.36865234375-1.353515625l-0.24609375,0q-0.9228515625,0-1.72265625,0.5537109375q-0.89208984375,0.6767578125-1.584228515625,1.9072265625t-1.153564453125,2.61474609375t-0.722900390625,2.79931640625t-0.261474609375,2.337890625q0,1.26123046875,0.292236328125,2.876220703125t0.984375,3.060791015625t1.75341796875,2.43017578125t2.722412109375,0.984375q1.50732421875,0,2.73779296875-0.73828125t2.353271484375-1.645751953125t2.199462890625-1.63037109375t2.21484375-0.722900390625q0.4921875,0,0.999755859375,0.123046875t0.507568359375,0.64599609375l0,0.1845703125q-0.5537109375,1.44580078125-1.87646484375,2.55322265625t-2.968505859375,1.922607421875t-3.41455078125,1.215087890625t-3.153076171875,0.39990234375q-2.583984375,0-4.537353515625-0.845947265625t-3.245361328125-2.322509765625t-1.953369140625-3.552978515625t-0.661376953125-4.537353515625z M207.94456542969,132.51513671875l0.64599609375-0.76904296875q-0.123046875-5.16796875-0.27685546875-10.30517578125t-0.15380859375-10.212890625q0-6.30615234375,0.753662109375-12.197021484375t1.491943359375-12.073974609375q0.0615234375-0.369140625,0.353759765625-0.599853515625t0.722900390625-0.384521484375t0.876708984375-0.21533203125t0.815185546875-0.0615234375q0.4921875,0,1.23046875,0.1845703125t1.4765625,1.07666015625q0,0.3076171875,0.046142578125,0.538330078125t0.046142578125,0.538330078125q0,2.337890625-0.630615234375,5.01416015625t-0.845947265625,5.13720703125q-0.24609375,3.0146484375-0.33837890625,5.9677734375t-0.09228515625,5.99853515625l0.0615234375,2.70703125q0.615234375-0.76904296875,1.75341796875-1.96875t2.4609375-2.322509765625t2.6455078125-1.922607421875t2.3994140625-0.7998046875q1.63037109375,0,2.260986328125,0.9228515625t0.630615234375,2.43017578125q0,1.38427734375-0.599853515625,2.8916015625t-1.56884765625,2.937744140625t-2.199462890625,2.568603515625t-2.43017578125,1.69189453125q1.63037109375,2.0302734375,3.337646484375,3.8759765625t3.737548828125,3.47607421875l0,0.70751953125q-0.0615234375,0.3076171875-0.384521484375,0.46142578125t-0.70751953125,0.24609375t-0.753662109375,0.138427734375t-0.615234375,0.046142578125q-1.50732421875,0-2.906982421875-0.89208984375t-2.61474609375-2.18408203125t-2.291748046875-2.73779296875t-1.96875-2.5224609375q0.1845703125,3.53759765625,0.415283203125,7.059814453125t0.230712890625,7.059814453125q0,0.4306640625-0.384521484375,0.722900390625t-0.89208984375,0.446044921875t-1.030517578125,0.21533203125t-0.861328125,0.0615234375q-1.81494140625,0-2.568603515625-0.661376953125t-1.276611328125-2.291748046875z M214.25071777344,118.0263671875q0.76904296875,0,1.830322265625-0.661376953125t2.199462890625-1.645751953125t2.12255859375-2.076416015625t1.584228515625-2.076416015625t0.599853515625-1.584228515625t-0.83056640625-0.538330078125q-0.3076171875,0-1.26123046875,0.89208984375t-2.12255859375,2.18408203125t-2.337890625,2.79931640625t-1.7841796875,2.70703125z"/></svg>
